<?xml version="1.0" encoding="UTF-8"?>
<svg width="1440px" height="900px" viewBox="0 0 1440 900" version="1.1" xmlns="http://www.w3.org/2000/svg" xmlns:xlink="http://www.w3.org/1999/xlink">
    <title>MacBook Air 13"@2x</title>
    <g id="MacBook-Air-13&quot;" stroke="none" stroke-width="1" fill="none" fill-rule="evenodd">
        <rect fill="#FFFFFF" x="0" y="0" width="1440" height="900"></rect>
        <g id="master" transform="translate(448, 129)">
            <rect id="panel" fill="#4B5563" x="0" y="0" width="300" height="378" rx="8"></rect>
            <g id="kube-apiserver" transform="translate(16, 46)">
                <rect id="矩形" fill="#1F2937" x="0" y="0" width="268" height="46" rx="8"></rect>
                <text font-family="RobotoMonoForPowerline-Medium, Roboto Mono Medium for Powerline" font-size="12" font-weight="400" fill="#FFFFFF">
                    <tspan x="46" y="27">kube-apiserver</tspan>
                </text>
                <g id="cube" transform="translate(16, 16)" fill="#FFFFFF" fill-rule="nonzero">
                    <path d="M13.0307692,4.75002346 L8.24923077,7.25495925 C7.80769231,7.48362559 7.53846154,7.94095826 7.53846154,8.45026056 L7.53846154,13.2938293 C7.53846154,13.8135256 8.06615385,14.1565251 8.50769231,13.9174648 L13.2892308,11.412529 C13.72,11.1838627 14,10.72653 14,10.2172277 L14,5.38405285 C14,4.85396271 13.4723077,4.52135713 13.0307692,4.75002346 Z M5.75076923,7.24456533 L0.969230769,4.75002346 C0.527692308,4.52135713 0,4.85396271 0,5.37365893 L0,10.2380156 C0,10.7473179 0.269230769,11.2046505 0.710769231,11.4333169 L5.49230769,13.9278587 C5.93384615,14.1565251 6.46153846,13.8135256 6.46153846,13.2938293 L6.46153846,8.43986663 C6.46153846,7.93056434 6.19230769,7.47323166 5.75076923,7.24456533 Z M12.5892308,3.6170857 C12.8153846,3.50275253 12.9230769,3.30526797 12.9015385,3.11817733 C12.9230769,2.92069276 12.8153846,2.73360212 12.5892308,2.61926896 L7.72153846,0.166302791 C7.50615385,0.0519696221 7.24769231,0 6.98923077,0 C6.73076923,0 6.47230769,0.0519696221 6.25692308,0.166302791 L1.38923077,2.60887503 C1.16307692,2.7232082 1.06615385,2.92069276 1.07692308,3.1077834 C1.06615385,3.30526797 1.16307692,3.50275253 1.38923077,3.6170857 L6.25692308,6.05965794 C6.47230769,6.17399111 6.73076923,6.22596073 6.98923077,6.22596073 C7.24769231,6.22596073 7.50615385,6.17399111 7.72153846,6.05965794 L12.5892308,3.6170857 Z" id="形状"></path>
                </g>
            </g>
            <g id="kube-controller-manager" transform="translate(16, 100)">
                <rect id="矩形" fill="#1F2937" x="0" y="0" width="268" height="46" rx="8"></rect>
                <text id="kube-controller-mana" font-family="RobotoMonoForPowerline-Medium, Roboto Mono Medium for Powerline" font-size="12" font-weight="400" fill="#FFFFFF">
                    <tspan x="46" y="27">kube-controller-manager</tspan>
                </text>
                <g id="cube" transform="translate(16, 16)" fill="#FFFFFF" fill-rule="nonzero">
                    <path d="M13.0307692,4.75002346 L8.24923077,7.25495925 C7.80769231,7.48362559 7.53846154,7.94095826 7.53846154,8.45026056 L7.53846154,13.2938293 C7.53846154,13.8135256 8.06615385,14.1565251 8.50769231,13.9174648 L13.2892308,11.412529 C13.72,11.1838627 14,10.72653 14,10.2172277 L14,5.38405285 C14,4.85396271 13.4723077,4.52135713 13.0307692,4.75002346 Z M5.75076923,7.24456533 L0.969230769,4.75002346 C0.527692308,4.52135713 0,4.85396271 0,5.37365893 L0,10.2380156 C0,10.7473179 0.269230769,11.2046505 0.710769231,11.4333169 L5.49230769,13.9278587 C5.93384615,14.1565251 6.46153846,13.8135256 6.46153846,13.2938293 L6.46153846,8.43986663 C6.46153846,7.93056434 6.19230769,7.47323166 5.75076923,7.24456533 Z M12.5892308,3.6170857 C12.8153846,3.50275253 12.9230769,3.30526797 12.9015385,3.11817733 C12.9230769,2.92069276 12.8153846,2.73360212 12.5892308,2.61926896 L7.72153846,0.166302791 C7.50615385,0.0519696221 7.24769231,0 6.98923077,0 C6.73076923,0 6.47230769,0.0519696221 6.25692308,0.166302791 L1.38923077,2.60887503 C1.16307692,2.7232082 1.06615385,2.92069276 1.07692308,3.1077834 C1.06615385,3.30526797 1.16307692,3.50275253 1.38923077,3.6170857 L6.25692308,6.05965794 C6.47230769,6.17399111 6.73076923,6.22596073 6.98923077,6.22596073 C7.24769231,6.22596073 7.50615385,6.17399111 7.72153846,6.05965794 L12.5892308,3.6170857 Z" id="形状"></path>
                </g>
            </g>
            <g id="kube-scheduler" transform="translate(16, 154)">
                <rect id="矩形" fill="#1F2937" x="0" y="0" width="268" height="46" rx="8"></rect>
                <text font-family="RobotoMonoForPowerline-Medium, Roboto Mono Medium for Powerline" font-size="12" font-weight="400" fill="#FFFFFF">
                    <tspan x="46" y="27">kube-scheduler</tspan>
                </text>
                <g id="cube" transform="translate(16, 16)" fill="#FFFFFF" fill-rule="nonzero">
                    <path d="M13.0307692,4.75002346 L8.24923077,7.25495925 C7.80769231,7.48362559 7.53846154,7.94095826 7.53846154,8.45026056 L7.53846154,13.2938293 C7.53846154,13.8135256 8.06615385,14.1565251 8.50769231,13.9174648 L13.2892308,11.412529 C13.72,11.1838627 14,10.72653 14,10.2172277 L14,5.38405285 C14,4.85396271 13.4723077,4.52135713 13.0307692,4.75002346 Z M5.75076923,7.24456533 L0.969230769,4.75002346 C0.527692308,4.52135713 0,4.85396271 0,5.37365893 L0,10.2380156 C0,10.7473179 0.269230769,11.2046505 0.710769231,11.4333169 L5.49230769,13.9278587 C5.93384615,14.1565251 6.46153846,13.8135256 6.46153846,13.2938293 L6.46153846,8.43986663 C6.46153846,7.93056434 6.19230769,7.47323166 5.75076923,7.24456533 Z M12.5892308,3.6170857 C12.8153846,3.50275253 12.9230769,3.30526797 12.9015385,3.11817733 C12.9230769,2.92069276 12.8153846,2.73360212 12.5892308,2.61926896 L7.72153846,0.166302791 C7.50615385,0.0519696221 7.24769231,0 6.98923077,0 C6.73076923,0 6.47230769,0.0519696221 6.25692308,0.166302791 L1.38923077,2.60887503 C1.16307692,2.7232082 1.06615385,2.92069276 1.07692308,3.1077834 C1.06615385,3.30526797 1.16307692,3.50275253 1.38923077,3.6170857 L6.25692308,6.05965794 C6.47230769,6.17399111 6.73076923,6.22596073 6.98923077,6.22596073 C7.24769231,6.22596073 7.50615385,6.17399111 7.72153846,6.05965794 L12.5892308,3.6170857 Z" id="形状"></path>
                </g>
            </g>
            <g id="kube-proxy" transform="translate(16, 208)">
                <rect id="矩形" fill="#1F2937" x="0" y="0" width="268" height="46" rx="8"></rect>
                <text font-family="RobotoMonoForPowerline-Medium, Roboto Mono Medium for Powerline" font-size="12" font-weight="400" fill="#FFFFFF">
                    <tspan x="46" y="27">kube-proxy</tspan>
                </text>
                <g id="cube" transform="translate(16, 16)" fill="#FFFFFF" fill-rule="nonzero">
                    <path d="M13.0307692,4.75002346 L8.24923077,7.25495925 C7.80769231,7.48362559 7.53846154,7.94095826 7.53846154,8.45026056 L7.53846154,13.2938293 C7.53846154,13.8135256 8.06615385,14.1565251 8.50769231,13.9174648 L13.2892308,11.412529 C13.72,11.1838627 14,10.72653 14,10.2172277 L14,5.38405285 C14,4.85396271 13.4723077,4.52135713 13.0307692,4.75002346 Z M5.75076923,7.24456533 L0.969230769,4.75002346 C0.527692308,4.52135713 0,4.85396271 0,5.37365893 L0,10.2380156 C0,10.7473179 0.269230769,11.2046505 0.710769231,11.4333169 L5.49230769,13.9278587 C5.93384615,14.1565251 6.46153846,13.8135256 6.46153846,13.2938293 L6.46153846,8.43986663 C6.46153846,7.93056434 6.19230769,7.47323166 5.75076923,7.24456533 Z M12.5892308,3.6170857 C12.8153846,3.50275253 12.9230769,3.30526797 12.9015385,3.11817733 C12.9230769,2.92069276 12.8153846,2.73360212 12.5892308,2.61926896 L7.72153846,0.166302791 C7.50615385,0.0519696221 7.24769231,0 6.98923077,0 C6.73076923,0 6.47230769,0.0519696221 6.25692308,0.166302791 L1.38923077,2.60887503 C1.16307692,2.7232082 1.06615385,2.92069276 1.07692308,3.1077834 C1.06615385,3.30526797 1.16307692,3.50275253 1.38923077,3.6170857 L6.25692308,6.05965794 C6.47230769,6.17399111 6.73076923,6.22596073 6.98923077,6.22596073 C7.24769231,6.22596073 7.50615385,6.17399111 7.72153846,6.05965794 L12.5892308,3.6170857 Z" id="形状"></path>
                </g>
            </g>
            <g id="kubelet" transform="translate(16, 262)">
                <rect id="矩形" fill="#1F2937" x="0" y="0" width="268" height="46" rx="8"></rect>
                <text font-family="RobotoMonoForPowerline-Medium, Roboto Mono Medium for Powerline" font-size="12" font-weight="400" fill="#FFFFFF">
                    <tspan x="46" y="27">kubelet</tspan>
                </text>
                <g id="cube" transform="translate(16, 16)" fill="#FFFFFF" fill-rule="nonzero">
                    <path d="M13.0307692,4.75002346 L8.24923077,7.25495925 C7.80769231,7.48362559 7.53846154,7.94095826 7.53846154,8.45026056 L7.53846154,13.2938293 C7.53846154,13.8135256 8.06615385,14.1565251 8.50769231,13.9174648 L13.2892308,11.412529 C13.72,11.1838627 14,10.72653 14,10.2172277 L14,5.38405285 C14,4.85396271 13.4723077,4.52135713 13.0307692,4.75002346 Z M5.75076923,7.24456533 L0.969230769,4.75002346 C0.527692308,4.52135713 0,4.85396271 0,5.37365893 L0,10.2380156 C0,10.7473179 0.269230769,11.2046505 0.710769231,11.4333169 L5.49230769,13.9278587 C5.93384615,14.1565251 6.46153846,13.8135256 6.46153846,13.2938293 L6.46153846,8.43986663 C6.46153846,7.93056434 6.19230769,7.47323166 5.75076923,7.24456533 Z M12.5892308,3.6170857 C12.8153846,3.50275253 12.9230769,3.30526797 12.9015385,3.11817733 C12.9230769,2.92069276 12.8153846,2.73360212 12.5892308,2.61926896 L7.72153846,0.166302791 C7.50615385,0.0519696221 7.24769231,0 6.98923077,0 C6.73076923,0 6.47230769,0.0519696221 6.25692308,0.166302791 L1.38923077,2.60887503 C1.16307692,2.7232082 1.06615385,2.92069276 1.07692308,3.1077834 C1.06615385,3.30526797 1.16307692,3.50275253 1.38923077,3.6170857 L6.25692308,6.05965794 C6.47230769,6.17399111 6.73076923,6.22596073 6.98923077,6.22596073 C7.24769231,6.22596073 7.50615385,6.17399111 7.72153846,6.05965794 L12.5892308,3.6170857 Z" id="形状"></path>
                </g>
            </g>
            <g id="ETCD" transform="translate(16, 316)">
                <rect id="矩形" fill="#1F2937" x="0" y="0" width="268" height="46" rx="8"></rect>
                <text font-family="RobotoMonoForPowerline-Medium, Roboto Mono Medium for Powerline" font-size="12" font-weight="400" fill="#FFFFFF">
                    <tspan x="46" y="27">ETCD</tspan>
                </text>
                <g id="cube" transform="translate(16, 16)" fill="#FFFFFF" fill-rule="nonzero">
                    <path d="M13.0307692,4.75002346 L8.24923077,7.25495925 C7.80769231,7.48362559 7.53846154,7.94095826 7.53846154,8.45026056 L7.53846154,13.2938293 C7.53846154,13.8135256 8.06615385,14.1565251 8.50769231,13.9174648 L13.2892308,11.412529 C13.72,11.1838627 14,10.72653 14,10.2172277 L14,5.38405285 C14,4.85396271 13.4723077,4.52135713 13.0307692,4.75002346 Z M5.75076923,7.24456533 L0.969230769,4.75002346 C0.527692308,4.52135713 0,4.85396271 0,5.37365893 L0,10.2380156 C0,10.7473179 0.269230769,11.2046505 0.710769231,11.4333169 L5.49230769,13.9278587 C5.93384615,14.1565251 6.46153846,13.8135256 6.46153846,13.2938293 L6.46153846,8.43986663 C6.46153846,7.93056434 6.19230769,7.47323166 5.75076923,7.24456533 Z M12.5892308,3.6170857 C12.8153846,3.50275253 12.9230769,3.30526797 12.9015385,3.11817733 C12.9230769,2.92069276 12.8153846,2.73360212 12.5892308,2.61926896 L7.72153846,0.166302791 C7.50615385,0.0519696221 7.24769231,0 6.98923077,0 C6.73076923,0 6.47230769,0.0519696221 6.25692308,0.166302791 L1.38923077,2.60887503 C1.16307692,2.7232082 1.06615385,2.92069276 1.07692308,3.1077834 C1.06615385,3.30526797 1.16307692,3.50275253 1.38923077,3.6170857 L6.25692308,6.05965794 C6.47230769,6.17399111 6.73076923,6.22596073 6.98923077,6.22596073 C7.24769231,6.22596073 7.50615385,6.17399111 7.72153846,6.05965794 L12.5892308,3.6170857 Z" id="形状"></path>
                </g>
            </g>
            <rect id="mask" fill-opacity="0.4" fill="#FFFFFF" x="0" y="0" width="300" height="378" rx="8"></rect>
            <text id="master3:-10.1.1.13" font-family="RobotoMonoForPowerline-Medium, Roboto Mono Medium for Powerline" font-size="12" font-weight="400" fill="#FFFFFF">
                <tspan x="42" y="27">master3: 10.1.1.13</tspan>
            </text>
            <text id="4C/8G/100G" font-family="RobotoMonoForPowerline-Medium, Roboto Mono Medium for Powerline" font-size="12" font-weight="400" fill="#FFFFFF">
                <tspan x="211.988281" y="27">4C/8G/100G</tspan>
            </text>
            <g id="node" transform="translate(16, 16)" fill="#FFFFFF" fill-rule="nonzero">
                <path d="M0,0 L0,3 L14,3 L14,0 L0,0 Z M2.5375,2.18918919 L0.9625,2.18918919 L0.9625,0.891891892 L2.45,0.891891892 L2.45,2.18918919 L2.5375,2.18918919 Z M4.725,2.18918919 L3.2375,2.18918919 L3.2375,0.891891892 L4.725,0.891891892 L4.725,2.18918919 Z M7,2.18918919 L5.5125,2.18918919 L5.5125,0.891891892 L7,0.891891892 L7,2.18918919 L7,2.18918919 Z" id="形状"></path>
                <path d="M0,5 L0,8 L14,8 L14,5 L0,5 Z M2.5375,7.18918919 L0.9625,7.18918919 L0.9625,5.89189189 L2.45,5.89189189 L2.45,7.18918919 L2.5375,7.18918919 Z M4.725,7.18918919 L3.2375,7.18918919 L3.2375,5.89189189 L4.725,5.89189189 L4.725,7.18918919 Z M7,7.18918919 L5.5125,7.18918919 L5.5125,5.89189189 L7,5.89189189 L7,7.18918919 L7,7.18918919 Z" id="形状"></path>
                <path d="M0,11 L0,14 L14,14 L14,11 L0,11 Z M2.5375,13.1081081 L0.9625,13.1081081 L0.9625,11.8108108 L2.45,11.8108108 L2.45,13.1081081 L2.5375,13.1081081 Z M4.725,13.1081081 L3.2375,13.1081081 L3.2375,11.8108108 L4.725,11.8108108 L4.725,13.1081081 Z M7,13.1081081 L5.5125,13.1081081 L5.5125,11.8108108 L7,11.8108108 L7,13.1081081 L7,13.1081081 Z" id="形状"></path>
            </g>
        </g>
        <g id="master" transform="translate(400, 169)">
            <rect id="panel" fill="#4B5563" x="0" y="0" width="300" height="378" rx="8"></rect>
            <g id="kube-apiserver" transform="translate(16, 46)">
                <rect id="矩形" fill="#1F2937" x="0" y="0" width="268" height="46" rx="8"></rect>
                <text font-family="RobotoMonoForPowerline-Medium, Roboto Mono Medium for Powerline" font-size="12" font-weight="400" fill="#FFFFFF">
                    <tspan x="46" y="27">kube-apiserver</tspan>
                </text>
                <g id="cube" transform="translate(16, 16)" fill="#FFFFFF" fill-rule="nonzero">
                    <path d="M13.0307692,4.75002346 L8.24923077,7.25495925 C7.80769231,7.48362559 7.53846154,7.94095826 7.53846154,8.45026056 L7.53846154,13.2938293 C7.53846154,13.8135256 8.06615385,14.1565251 8.50769231,13.9174648 L13.2892308,11.412529 C13.72,11.1838627 14,10.72653 14,10.2172277 L14,5.38405285 C14,4.85396271 13.4723077,4.52135713 13.0307692,4.75002346 Z M5.75076923,7.24456533 L0.969230769,4.75002346 C0.527692308,4.52135713 0,4.85396271 0,5.37365893 L0,10.2380156 C0,10.7473179 0.269230769,11.2046505 0.710769231,11.4333169 L5.49230769,13.9278587 C5.93384615,14.1565251 6.46153846,13.8135256 6.46153846,13.2938293 L6.46153846,8.43986663 C6.46153846,7.93056434 6.19230769,7.47323166 5.75076923,7.24456533 Z M12.5892308,3.6170857 C12.8153846,3.50275253 12.9230769,3.30526797 12.9015385,3.11817733 C12.9230769,2.92069276 12.8153846,2.73360212 12.5892308,2.61926896 L7.72153846,0.166302791 C7.50615385,0.0519696221 7.24769231,0 6.98923077,0 C6.73076923,0 6.47230769,0.0519696221 6.25692308,0.166302791 L1.38923077,2.60887503 C1.16307692,2.7232082 1.06615385,2.92069276 1.07692308,3.1077834 C1.06615385,3.30526797 1.16307692,3.50275253 1.38923077,3.6170857 L6.25692308,6.05965794 C6.47230769,6.17399111 6.73076923,6.22596073 6.98923077,6.22596073 C7.24769231,6.22596073 7.50615385,6.17399111 7.72153846,6.05965794 L12.5892308,3.6170857 Z" id="形状"></path>
                </g>
            </g>
            <g id="kube-controller-manager" transform="translate(16, 100)">
                <rect id="矩形" fill="#1F2937" x="0" y="0" width="268" height="46" rx="8"></rect>
                <text id="kube-controller-mana" font-family="RobotoMonoForPowerline-Medium, Roboto Mono Medium for Powerline" font-size="12" font-weight="400" fill="#FFFFFF">
                    <tspan x="46" y="27">kube-controller-manager</tspan>
                </text>
                <g id="cube" transform="translate(16, 16)" fill="#FFFFFF" fill-rule="nonzero">
                    <path d="M13.0307692,4.75002346 L8.24923077,7.25495925 C7.80769231,7.48362559 7.53846154,7.94095826 7.53846154,8.45026056 L7.53846154,13.2938293 C7.53846154,13.8135256 8.06615385,14.1565251 8.50769231,13.9174648 L13.2892308,11.412529 C13.72,11.1838627 14,10.72653 14,10.2172277 L14,5.38405285 C14,4.85396271 13.4723077,4.52135713 13.0307692,4.75002346 Z M5.75076923,7.24456533 L0.969230769,4.75002346 C0.527692308,4.52135713 0,4.85396271 0,5.37365893 L0,10.2380156 C0,10.7473179 0.269230769,11.2046505 0.710769231,11.4333169 L5.49230769,13.9278587 C5.93384615,14.1565251 6.46153846,13.8135256 6.46153846,13.2938293 L6.46153846,8.43986663 C6.46153846,7.93056434 6.19230769,7.47323166 5.75076923,7.24456533 Z M12.5892308,3.6170857 C12.8153846,3.50275253 12.9230769,3.30526797 12.9015385,3.11817733 C12.9230769,2.92069276 12.8153846,2.73360212 12.5892308,2.61926896 L7.72153846,0.166302791 C7.50615385,0.0519696221 7.24769231,0 6.98923077,0 C6.73076923,0 6.47230769,0.0519696221 6.25692308,0.166302791 L1.38923077,2.60887503 C1.16307692,2.7232082 1.06615385,2.92069276 1.07692308,3.1077834 C1.06615385,3.30526797 1.16307692,3.50275253 1.38923077,3.6170857 L6.25692308,6.05965794 C6.47230769,6.17399111 6.73076923,6.22596073 6.98923077,6.22596073 C7.24769231,6.22596073 7.50615385,6.17399111 7.72153846,6.05965794 L12.5892308,3.6170857 Z" id="形状"></path>
                </g>
            </g>
            <g id="kube-scheduler" transform="translate(16, 154)">
                <rect id="矩形" fill="#1F2937" x="0" y="0" width="268" height="46" rx="8"></rect>
                <text font-family="RobotoMonoForPowerline-Medium, Roboto Mono Medium for Powerline" font-size="12" font-weight="400" fill="#FFFFFF">
                    <tspan x="46" y="27">kube-scheduler</tspan>
                </text>
                <g id="cube" transform="translate(16, 16)" fill="#FFFFFF" fill-rule="nonzero">
                    <path d="M13.0307692,4.75002346 L8.24923077,7.25495925 C7.80769231,7.48362559 7.53846154,7.94095826 7.53846154,8.45026056 L7.53846154,13.2938293 C7.53846154,13.8135256 8.06615385,14.1565251 8.50769231,13.9174648 L13.2892308,11.412529 C13.72,11.1838627 14,10.72653 14,10.2172277 L14,5.38405285 C14,4.85396271 13.4723077,4.52135713 13.0307692,4.75002346 Z M5.75076923,7.24456533 L0.969230769,4.75002346 C0.527692308,4.52135713 0,4.85396271 0,5.37365893 L0,10.2380156 C0,10.7473179 0.269230769,11.2046505 0.710769231,11.4333169 L5.49230769,13.9278587 C5.93384615,14.1565251 6.46153846,13.8135256 6.46153846,13.2938293 L6.46153846,8.43986663 C6.46153846,7.93056434 6.19230769,7.47323166 5.75076923,7.24456533 Z M12.5892308,3.6170857 C12.8153846,3.50275253 12.9230769,3.30526797 12.9015385,3.11817733 C12.9230769,2.92069276 12.8153846,2.73360212 12.5892308,2.61926896 L7.72153846,0.166302791 C7.50615385,0.0519696221 7.24769231,0 6.98923077,0 C6.73076923,0 6.47230769,0.0519696221 6.25692308,0.166302791 L1.38923077,2.60887503 C1.16307692,2.7232082 1.06615385,2.92069276 1.07692308,3.1077834 C1.06615385,3.30526797 1.16307692,3.50275253 1.38923077,3.6170857 L6.25692308,6.05965794 C6.47230769,6.17399111 6.73076923,6.22596073 6.98923077,6.22596073 C7.24769231,6.22596073 7.50615385,6.17399111 7.72153846,6.05965794 L12.5892308,3.6170857 Z" id="形状"></path>
                </g>
            </g>
            <g id="kube-proxy" transform="translate(16, 208)">
                <rect id="矩形" fill="#1F2937" x="0" y="0" width="268" height="46" rx="8"></rect>
                <text font-family="RobotoMonoForPowerline-Medium, Roboto Mono Medium for Powerline" font-size="12" font-weight="400" fill="#FFFFFF">
                    <tspan x="46" y="27">kube-proxy</tspan>
                </text>
                <g id="cube" transform="translate(16, 16)" fill="#FFFFFF" fill-rule="nonzero">
                    <path d="M13.0307692,4.75002346 L8.24923077,7.25495925 C7.80769231,7.48362559 7.53846154,7.94095826 7.53846154,8.45026056 L7.53846154,13.2938293 C7.53846154,13.8135256 8.06615385,14.1565251 8.50769231,13.9174648 L13.2892308,11.412529 C13.72,11.1838627 14,10.72653 14,10.2172277 L14,5.38405285 C14,4.85396271 13.4723077,4.52135713 13.0307692,4.75002346 Z M5.75076923,7.24456533 L0.969230769,4.75002346 C0.527692308,4.52135713 0,4.85396271 0,5.37365893 L0,10.2380156 C0,10.7473179 0.269230769,11.2046505 0.710769231,11.4333169 L5.49230769,13.9278587 C5.93384615,14.1565251 6.46153846,13.8135256 6.46153846,13.2938293 L6.46153846,8.43986663 C6.46153846,7.93056434 6.19230769,7.47323166 5.75076923,7.24456533 Z M12.5892308,3.6170857 C12.8153846,3.50275253 12.9230769,3.30526797 12.9015385,3.11817733 C12.9230769,2.92069276 12.8153846,2.73360212 12.5892308,2.61926896 L7.72153846,0.166302791 C7.50615385,0.0519696221 7.24769231,0 6.98923077,0 C6.73076923,0 6.47230769,0.0519696221 6.25692308,0.166302791 L1.38923077,2.60887503 C1.16307692,2.7232082 1.06615385,2.92069276 1.07692308,3.1077834 C1.06615385,3.30526797 1.16307692,3.50275253 1.38923077,3.6170857 L6.25692308,6.05965794 C6.47230769,6.17399111 6.73076923,6.22596073 6.98923077,6.22596073 C7.24769231,6.22596073 7.50615385,6.17399111 7.72153846,6.05965794 L12.5892308,3.6170857 Z" id="形状"></path>
                </g>
            </g>
            <g id="kubelet" transform="translate(16, 262)">
                <rect id="矩形" fill="#1F2937" x="0" y="0" width="268" height="46" rx="8"></rect>
                <text font-family="RobotoMonoForPowerline-Medium, Roboto Mono Medium for Powerline" font-size="12" font-weight="400" fill="#FFFFFF">
                    <tspan x="46" y="27">kubelet</tspan>
                </text>
                <g id="cube" transform="translate(16, 16)" fill="#FFFFFF" fill-rule="nonzero">
                    <path d="M13.0307692,4.75002346 L8.24923077,7.25495925 C7.80769231,7.48362559 7.53846154,7.94095826 7.53846154,8.45026056 L7.53846154,13.2938293 C7.53846154,13.8135256 8.06615385,14.1565251 8.50769231,13.9174648 L13.2892308,11.412529 C13.72,11.1838627 14,10.72653 14,10.2172277 L14,5.38405285 C14,4.85396271 13.4723077,4.52135713 13.0307692,4.75002346 Z M5.75076923,7.24456533 L0.969230769,4.75002346 C0.527692308,4.52135713 0,4.85396271 0,5.37365893 L0,10.2380156 C0,10.7473179 0.269230769,11.2046505 0.710769231,11.4333169 L5.49230769,13.9278587 C5.93384615,14.1565251 6.46153846,13.8135256 6.46153846,13.2938293 L6.46153846,8.43986663 C6.46153846,7.93056434 6.19230769,7.47323166 5.75076923,7.24456533 Z M12.5892308,3.6170857 C12.8153846,3.50275253 12.9230769,3.30526797 12.9015385,3.11817733 C12.9230769,2.92069276 12.8153846,2.73360212 12.5892308,2.61926896 L7.72153846,0.166302791 C7.50615385,0.0519696221 7.24769231,0 6.98923077,0 C6.73076923,0 6.47230769,0.0519696221 6.25692308,0.166302791 L1.38923077,2.60887503 C1.16307692,2.7232082 1.06615385,2.92069276 1.07692308,3.1077834 C1.06615385,3.30526797 1.16307692,3.50275253 1.38923077,3.6170857 L6.25692308,6.05965794 C6.47230769,6.17399111 6.73076923,6.22596073 6.98923077,6.22596073 C7.24769231,6.22596073 7.50615385,6.17399111 7.72153846,6.05965794 L12.5892308,3.6170857 Z" id="形状"></path>
                </g>
            </g>
            <g id="ETCD" transform="translate(16, 316)">
                <rect id="矩形" fill="#1F2937" x="0" y="0" width="268" height="46" rx="8"></rect>
                <text font-family="RobotoMonoForPowerline-Medium, Roboto Mono Medium for Powerline" font-size="12" font-weight="400" fill="#FFFFFF">
                    <tspan x="46" y="27">ETCD</tspan>
                </text>
                <g id="cube" transform="translate(16, 16)" fill="#FFFFFF" fill-rule="nonzero">
                    <path d="M13.0307692,4.75002346 L8.24923077,7.25495925 C7.80769231,7.48362559 7.53846154,7.94095826 7.53846154,8.45026056 L7.53846154,13.2938293 C7.53846154,13.8135256 8.06615385,14.1565251 8.50769231,13.9174648 L13.2892308,11.412529 C13.72,11.1838627 14,10.72653 14,10.2172277 L14,5.38405285 C14,4.85396271 13.4723077,4.52135713 13.0307692,4.75002346 Z M5.75076923,7.24456533 L0.969230769,4.75002346 C0.527692308,4.52135713 0,4.85396271 0,5.37365893 L0,10.2380156 C0,10.7473179 0.269230769,11.2046505 0.710769231,11.4333169 L5.49230769,13.9278587 C5.93384615,14.1565251 6.46153846,13.8135256 6.46153846,13.2938293 L6.46153846,8.43986663 C6.46153846,7.93056434 6.19230769,7.47323166 5.75076923,7.24456533 Z M12.5892308,3.6170857 C12.8153846,3.50275253 12.9230769,3.30526797 12.9015385,3.11817733 C12.9230769,2.92069276 12.8153846,2.73360212 12.5892308,2.61926896 L7.72153846,0.166302791 C7.50615385,0.0519696221 7.24769231,0 6.98923077,0 C6.73076923,0 6.47230769,0.0519696221 6.25692308,0.166302791 L1.38923077,2.60887503 C1.16307692,2.7232082 1.06615385,2.92069276 1.07692308,3.1077834 C1.06615385,3.30526797 1.16307692,3.50275253 1.38923077,3.6170857 L6.25692308,6.05965794 C6.47230769,6.17399111 6.73076923,6.22596073 6.98923077,6.22596073 C7.24769231,6.22596073 7.50615385,6.17399111 7.72153846,6.05965794 L12.5892308,3.6170857 Z" id="形状"></path>
                </g>
            </g>
            <rect id="mask" fill-opacity="0.2" fill="#FFFFFF" x="0" y="0" width="300" height="378" rx="8"></rect>
            <text id="master2:-10.1.1.12" font-family="RobotoMonoForPowerline-Medium, Roboto Mono Medium for Powerline" font-size="12" font-weight="400" fill="#FFFFFF">
                <tspan x="42" y="27">master2: 10.1.1.12</tspan>
            </text>
            <text id="4C/8G/100G" font-family="RobotoMonoForPowerline-Medium, Roboto Mono Medium for Powerline" font-size="12" font-weight="400" fill="#FFFFFF">
                <tspan x="211.988281" y="27">4C/8G/100G</tspan>
            </text>
            <g id="node" transform="translate(16, 16)" fill="#FFFFFF" fill-rule="nonzero">
                <path d="M0,0 L0,3 L14,3 L14,0 L0,0 Z M2.5375,2.18918919 L0.9625,2.18918919 L0.9625,0.891891892 L2.45,0.891891892 L2.45,2.18918919 L2.5375,2.18918919 Z M4.725,2.18918919 L3.2375,2.18918919 L3.2375,0.891891892 L4.725,0.891891892 L4.725,2.18918919 Z M7,2.18918919 L5.5125,2.18918919 L5.5125,0.891891892 L7,0.891891892 L7,2.18918919 L7,2.18918919 Z" id="形状"></path>
                <path d="M0,5 L0,8 L14,8 L14,5 L0,5 Z M2.5375,7.18918919 L0.9625,7.18918919 L0.9625,5.89189189 L2.45,5.89189189 L2.45,7.18918919 L2.5375,7.18918919 Z M4.725,7.18918919 L3.2375,7.18918919 L3.2375,5.89189189 L4.725,5.89189189 L4.725,7.18918919 Z M7,7.18918919 L5.5125,7.18918919 L5.5125,5.89189189 L7,5.89189189 L7,7.18918919 L7,7.18918919 Z" id="形状"></path>
                <path d="M0,11 L0,14 L14,14 L14,11 L0,11 Z M2.5375,13.1081081 L0.9625,13.1081081 L0.9625,11.8108108 L2.45,11.8108108 L2.45,13.1081081 L2.5375,13.1081081 Z M4.725,13.1081081 L3.2375,13.1081081 L3.2375,11.8108108 L4.725,11.8108108 L4.725,13.1081081 Z M7,13.1081081 L5.5125,13.1081081 L5.5125,11.8108108 L7,11.8108108 L7,13.1081081 L7,13.1081081 Z" id="形状"></path>
            </g>
        </g>
        <g id="master" transform="translate(352, 209)">
            <rect id="panel" fill="#4B5563" x="0" y="0" width="300" height="378" rx="8"></rect>
            <g id="kube-apiserver" transform="translate(16, 46)">
                <rect id="矩形" fill="#1F2937" x="0" y="0" width="268" height="46" rx="8"></rect>
                <text font-family="RobotoMonoForPowerline-Medium, Roboto Mono Medium for Powerline" font-size="12" font-weight="400" fill="#FFFFFF">
                    <tspan x="46" y="27">kube-apiserver</tspan>
                </text>
                <g id="cube" transform="translate(16, 16)" fill="#FFFFFF" fill-rule="nonzero">
                    <path d="M13.0307692,4.75002346 L8.24923077,7.25495925 C7.80769231,7.48362559 7.53846154,7.94095826 7.53846154,8.45026056 L7.53846154,13.2938293 C7.53846154,13.8135256 8.06615385,14.1565251 8.50769231,13.9174648 L13.2892308,11.412529 C13.72,11.1838627 14,10.72653 14,10.2172277 L14,5.38405285 C14,4.85396271 13.4723077,4.52135713 13.0307692,4.75002346 Z M5.75076923,7.24456533 L0.969230769,4.75002346 C0.527692308,4.52135713 0,4.85396271 0,5.37365893 L0,10.2380156 C0,10.7473179 0.269230769,11.2046505 0.710769231,11.4333169 L5.49230769,13.9278587 C5.93384615,14.1565251 6.46153846,13.8135256 6.46153846,13.2938293 L6.46153846,8.43986663 C6.46153846,7.93056434 6.19230769,7.47323166 5.75076923,7.24456533 Z M12.5892308,3.6170857 C12.8153846,3.50275253 12.9230769,3.30526797 12.9015385,3.11817733 C12.9230769,2.92069276 12.8153846,2.73360212 12.5892308,2.61926896 L7.72153846,0.166302791 C7.50615385,0.0519696221 7.24769231,0 6.98923077,0 C6.73076923,0 6.47230769,0.0519696221 6.25692308,0.166302791 L1.38923077,2.60887503 C1.16307692,2.7232082 1.06615385,2.92069276 1.07692308,3.1077834 C1.06615385,3.30526797 1.16307692,3.50275253 1.38923077,3.6170857 L6.25692308,6.05965794 C6.47230769,6.17399111 6.73076923,6.22596073 6.98923077,6.22596073 C7.24769231,6.22596073 7.50615385,6.17399111 7.72153846,6.05965794 L12.5892308,3.6170857 Z" id="形状"></path>
                </g>
            </g>
            <g id="kube-controller-manager" transform="translate(16, 100)">
                <rect id="矩形" fill="#1F2937" x="0" y="0" width="268" height="46" rx="8"></rect>
                <text id="kube-controller-mana" font-family="RobotoMonoForPowerline-Medium, Roboto Mono Medium for Powerline" font-size="12" font-weight="400" fill="#FFFFFF">
                    <tspan x="46" y="27">kube-controller-manager</tspan>
                </text>
                <g id="cube" transform="translate(16, 16)" fill="#FFFFFF" fill-rule="nonzero">
                    <path d="M13.0307692,4.75002346 L8.24923077,7.25495925 C7.80769231,7.48362559 7.53846154,7.94095826 7.53846154,8.45026056 L7.53846154,13.2938293 C7.53846154,13.8135256 8.06615385,14.1565251 8.50769231,13.9174648 L13.2892308,11.412529 C13.72,11.1838627 14,10.72653 14,10.2172277 L14,5.38405285 C14,4.85396271 13.4723077,4.52135713 13.0307692,4.75002346 Z M5.75076923,7.24456533 L0.969230769,4.75002346 C0.527692308,4.52135713 0,4.85396271 0,5.37365893 L0,10.2380156 C0,10.7473179 0.269230769,11.2046505 0.710769231,11.4333169 L5.49230769,13.9278587 C5.93384615,14.1565251 6.46153846,13.8135256 6.46153846,13.2938293 L6.46153846,8.43986663 C6.46153846,7.93056434 6.19230769,7.47323166 5.75076923,7.24456533 Z M12.5892308,3.6170857 C12.8153846,3.50275253 12.9230769,3.30526797 12.9015385,3.11817733 C12.9230769,2.92069276 12.8153846,2.73360212 12.5892308,2.61926896 L7.72153846,0.166302791 C7.50615385,0.0519696221 7.24769231,0 6.98923077,0 C6.73076923,0 6.47230769,0.0519696221 6.25692308,0.166302791 L1.38923077,2.60887503 C1.16307692,2.7232082 1.06615385,2.92069276 1.07692308,3.1077834 C1.06615385,3.30526797 1.16307692,3.50275253 1.38923077,3.6170857 L6.25692308,6.05965794 C6.47230769,6.17399111 6.73076923,6.22596073 6.98923077,6.22596073 C7.24769231,6.22596073 7.50615385,6.17399111 7.72153846,6.05965794 L12.5892308,3.6170857 Z" id="形状"></path>
                </g>
            </g>
            <g id="kube-scheduler" transform="translate(16, 154)">
                <rect id="矩形" fill="#1F2937" x="0" y="0" width="268" height="46" rx="8"></rect>
                <text font-family="RobotoMonoForPowerline-Medium, Roboto Mono Medium for Powerline" font-size="12" font-weight="400" fill="#FFFFFF">
                    <tspan x="46" y="27">kube-scheduler</tspan>
                </text>
                <g id="cube" transform="translate(16, 16)" fill="#FFFFFF" fill-rule="nonzero">
                    <path d="M13.0307692,4.75002346 L8.24923077,7.25495925 C7.80769231,7.48362559 7.53846154,7.94095826 7.53846154,8.45026056 L7.53846154,13.2938293 C7.53846154,13.8135256 8.06615385,14.1565251 8.50769231,13.9174648 L13.2892308,11.412529 C13.72,11.1838627 14,10.72653 14,10.2172277 L14,5.38405285 C14,4.85396271 13.4723077,4.52135713 13.0307692,4.75002346 Z M5.75076923,7.24456533 L0.969230769,4.75002346 C0.527692308,4.52135713 0,4.85396271 0,5.37365893 L0,10.2380156 C0,10.7473179 0.269230769,11.2046505 0.710769231,11.4333169 L5.49230769,13.9278587 C5.93384615,14.1565251 6.46153846,13.8135256 6.46153846,13.2938293 L6.46153846,8.43986663 C6.46153846,7.93056434 6.19230769,7.47323166 5.75076923,7.24456533 Z M12.5892308,3.6170857 C12.8153846,3.50275253 12.9230769,3.30526797 12.9015385,3.11817733 C12.9230769,2.92069276 12.8153846,2.73360212 12.5892308,2.61926896 L7.72153846,0.166302791 C7.50615385,0.0519696221 7.24769231,0 6.98923077,0 C6.73076923,0 6.47230769,0.0519696221 6.25692308,0.166302791 L1.38923077,2.60887503 C1.16307692,2.7232082 1.06615385,2.92069276 1.07692308,3.1077834 C1.06615385,3.30526797 1.16307692,3.50275253 1.38923077,3.6170857 L6.25692308,6.05965794 C6.47230769,6.17399111 6.73076923,6.22596073 6.98923077,6.22596073 C7.24769231,6.22596073 7.50615385,6.17399111 7.72153846,6.05965794 L12.5892308,3.6170857 Z" id="形状"></path>
                </g>
            </g>
            <g id="kube-proxy" transform="translate(16, 208)">
                <rect id="矩形" fill="#1F2937" x="0" y="0" width="268" height="46" rx="8"></rect>
                <text font-family="RobotoMonoForPowerline-Medium, Roboto Mono Medium for Powerline" font-size="12" font-weight="400" fill="#FFFFFF">
                    <tspan x="46" y="27">kube-proxy</tspan>
                </text>
                <g id="cube" transform="translate(16, 16)" fill="#FFFFFF" fill-rule="nonzero">
                    <path d="M13.0307692,4.75002346 L8.24923077,7.25495925 C7.80769231,7.48362559 7.53846154,7.94095826 7.53846154,8.45026056 L7.53846154,13.2938293 C7.53846154,13.8135256 8.06615385,14.1565251 8.50769231,13.9174648 L13.2892308,11.412529 C13.72,11.1838627 14,10.72653 14,10.2172277 L14,5.38405285 C14,4.85396271 13.4723077,4.52135713 13.0307692,4.75002346 Z M5.75076923,7.24456533 L0.969230769,4.75002346 C0.527692308,4.52135713 0,4.85396271 0,5.37365893 L0,10.2380156 C0,10.7473179 0.269230769,11.2046505 0.710769231,11.4333169 L5.49230769,13.9278587 C5.93384615,14.1565251 6.46153846,13.8135256 6.46153846,13.2938293 L6.46153846,8.43986663 C6.46153846,7.93056434 6.19230769,7.47323166 5.75076923,7.24456533 Z M12.5892308,3.6170857 C12.8153846,3.50275253 12.9230769,3.30526797 12.9015385,3.11817733 C12.9230769,2.92069276 12.8153846,2.73360212 12.5892308,2.61926896 L7.72153846,0.166302791 C7.50615385,0.0519696221 7.24769231,0 6.98923077,0 C6.73076923,0 6.47230769,0.0519696221 6.25692308,0.166302791 L1.38923077,2.60887503 C1.16307692,2.7232082 1.06615385,2.92069276 1.07692308,3.1077834 C1.06615385,3.30526797 1.16307692,3.50275253 1.38923077,3.6170857 L6.25692308,6.05965794 C6.47230769,6.17399111 6.73076923,6.22596073 6.98923077,6.22596073 C7.24769231,6.22596073 7.50615385,6.17399111 7.72153846,6.05965794 L12.5892308,3.6170857 Z" id="形状"></path>
                </g>
            </g>
            <g id="kubelet" transform="translate(16, 262)">
                <rect id="矩形" fill="#1F2937" x="0" y="0" width="268" height="46" rx="8"></rect>
                <text font-family="RobotoMonoForPowerline-Medium, Roboto Mono Medium for Powerline" font-size="12" font-weight="400" fill="#FFFFFF">
                    <tspan x="46" y="27">kubelet</tspan>
                </text>
                <g id="cube" transform="translate(16, 16)" fill="#FFFFFF" fill-rule="nonzero">
                    <path d="M13.0307692,4.75002346 L8.24923077,7.25495925 C7.80769231,7.48362559 7.53846154,7.94095826 7.53846154,8.45026056 L7.53846154,13.2938293 C7.53846154,13.8135256 8.06615385,14.1565251 8.50769231,13.9174648 L13.2892308,11.412529 C13.72,11.1838627 14,10.72653 14,10.2172277 L14,5.38405285 C14,4.85396271 13.4723077,4.52135713 13.0307692,4.75002346 Z M5.75076923,7.24456533 L0.969230769,4.75002346 C0.527692308,4.52135713 0,4.85396271 0,5.37365893 L0,10.2380156 C0,10.7473179 0.269230769,11.2046505 0.710769231,11.4333169 L5.49230769,13.9278587 C5.93384615,14.1565251 6.46153846,13.8135256 6.46153846,13.2938293 L6.46153846,8.43986663 C6.46153846,7.93056434 6.19230769,7.47323166 5.75076923,7.24456533 Z M12.5892308,3.6170857 C12.8153846,3.50275253 12.9230769,3.30526797 12.9015385,3.11817733 C12.9230769,2.92069276 12.8153846,2.73360212 12.5892308,2.61926896 L7.72153846,0.166302791 C7.50615385,0.0519696221 7.24769231,0 6.98923077,0 C6.73076923,0 6.47230769,0.0519696221 6.25692308,0.166302791 L1.38923077,2.60887503 C1.16307692,2.7232082 1.06615385,2.92069276 1.07692308,3.1077834 C1.06615385,3.30526797 1.16307692,3.50275253 1.38923077,3.6170857 L6.25692308,6.05965794 C6.47230769,6.17399111 6.73076923,6.22596073 6.98923077,6.22596073 C7.24769231,6.22596073 7.50615385,6.17399111 7.72153846,6.05965794 L12.5892308,3.6170857 Z" id="形状"></path>
                </g>
            </g>
            <g id="ETCD" transform="translate(16, 316)">
                <rect id="矩形" fill="#1F2937" x="0" y="0" width="268" height="46" rx="8"></rect>
                <text font-family="RobotoMonoForPowerline-Medium, Roboto Mono Medium for Powerline" font-size="12" font-weight="400" fill="#FFFFFF">
                    <tspan x="46" y="27">ETCD</tspan>
                </text>
                <g id="cube" transform="translate(16, 16)" fill="#FFFFFF" fill-rule="nonzero">
                    <path d="M13.0307692,4.75002346 L8.24923077,7.25495925 C7.80769231,7.48362559 7.53846154,7.94095826 7.53846154,8.45026056 L7.53846154,13.2938293 C7.53846154,13.8135256 8.06615385,14.1565251 8.50769231,13.9174648 L13.2892308,11.412529 C13.72,11.1838627 14,10.72653 14,10.2172277 L14,5.38405285 C14,4.85396271 13.4723077,4.52135713 13.0307692,4.75002346 Z M5.75076923,7.24456533 L0.969230769,4.75002346 C0.527692308,4.52135713 0,4.85396271 0,5.37365893 L0,10.2380156 C0,10.7473179 0.269230769,11.2046505 0.710769231,11.4333169 L5.49230769,13.9278587 C5.93384615,14.1565251 6.46153846,13.8135256 6.46153846,13.2938293 L6.46153846,8.43986663 C6.46153846,7.93056434 6.19230769,7.47323166 5.75076923,7.24456533 Z M12.5892308,3.6170857 C12.8153846,3.50275253 12.9230769,3.30526797 12.9015385,3.11817733 C12.9230769,2.92069276 12.8153846,2.73360212 12.5892308,2.61926896 L7.72153846,0.166302791 C7.50615385,0.0519696221 7.24769231,0 6.98923077,0 C6.73076923,0 6.47230769,0.0519696221 6.25692308,0.166302791 L1.38923077,2.60887503 C1.16307692,2.7232082 1.06615385,2.92069276 1.07692308,3.1077834 C1.06615385,3.30526797 1.16307692,3.50275253 1.38923077,3.6170857 L6.25692308,6.05965794 C6.47230769,6.17399111 6.73076923,6.22596073 6.98923077,6.22596073 C7.24769231,6.22596073 7.50615385,6.17399111 7.72153846,6.05965794 L12.5892308,3.6170857 Z" id="形状"></path>
                </g>
            </g>
            <text id="master1:-10.1.1.11" font-family="RobotoMonoForPowerline-Medium, Roboto Mono Medium for Powerline" font-size="12" font-weight="400" fill="#FFFFFF">
                <tspan x="42" y="27">master1: 10.1.1.11</tspan>
            </text>
            <text id="4C/8G/100G" font-family="RobotoMonoForPowerline-Medium, Roboto Mono Medium for Powerline" font-size="12" font-weight="400" fill="#FFFFFF">
                <tspan x="211.988281" y="27">4C/8G/100G</tspan>
            </text>
            <g id="node" transform="translate(16, 16)" fill="#FFFFFF" fill-rule="nonzero">
                <path d="M0,0 L0,3 L14,3 L14,0 L0,0 Z M2.5375,2.18918919 L0.9625,2.18918919 L0.9625,0.891891892 L2.45,0.891891892 L2.45,2.18918919 L2.5375,2.18918919 Z M4.725,2.18918919 L3.2375,2.18918919 L3.2375,0.891891892 L4.725,0.891891892 L4.725,2.18918919 Z M7,2.18918919 L5.5125,2.18918919 L5.5125,0.891891892 L7,0.891891892 L7,2.18918919 L7,2.18918919 Z" id="形状"></path>
                <path d="M0,5 L0,8 L14,8 L14,5 L0,5 Z M2.5375,7.18918919 L0.9625,7.18918919 L0.9625,5.89189189 L2.45,5.89189189 L2.45,7.18918919 L2.5375,7.18918919 Z M4.725,7.18918919 L3.2375,7.18918919 L3.2375,5.89189189 L4.725,5.89189189 L4.725,7.18918919 Z M7,7.18918919 L5.5125,7.18918919 L5.5125,5.89189189 L7,5.89189189 L7,7.18918919 L7,7.18918919 Z" id="形状"></path>
                <path d="M0,11 L0,14 L14,14 L14,11 L0,11 Z M2.5375,13.1081081 L0.9625,13.1081081 L0.9625,11.8108108 L2.45,11.8108108 L2.45,13.1081081 L2.5375,13.1081081 Z M4.725,13.1081081 L3.2375,13.1081081 L3.2375,11.8108108 L4.725,11.8108108 L4.725,13.1081081 Z M7,13.1081081 L5.5125,13.1081081 L5.5125,11.8108108 L7,11.8108108 L7,13.1081081 L7,13.1081081 Z" id="形状"></path>
            </g>
        </g>
        <g id="node" transform="translate(789, 570)">
            <rect id="panel" fill="#4B5563" x="0" y="0" width="300" height="162" rx="8"></rect>
            <g id="kube-proxy" transform="translate(16, 46)">
                <rect id="矩形" fill="#1F2937" x="0" y="0" width="268" height="46" rx="8"></rect>
                <text font-family="RobotoMonoForPowerline-Medium, Roboto Mono Medium for Powerline" font-size="12" font-weight="400" fill="#FFFFFF">
                    <tspan x="46" y="27">kube-proxy</tspan>
                </text>
                <g id="cube" transform="translate(16, 16)" fill="#FFFFFF" fill-rule="nonzero">
                    <path d="M13.0307692,4.75002346 L8.24923077,7.25495925 C7.80769231,7.48362559 7.53846154,7.94095826 7.53846154,8.45026056 L7.53846154,13.2938293 C7.53846154,13.8135256 8.06615385,14.1565251 8.50769231,13.9174648 L13.2892308,11.412529 C13.72,11.1838627 14,10.72653 14,10.2172277 L14,5.38405285 C14,4.85396271 13.4723077,4.52135713 13.0307692,4.75002346 Z M5.75076923,7.24456533 L0.969230769,4.75002346 C0.527692308,4.52135713 0,4.85396271 0,5.37365893 L0,10.2380156 C0,10.7473179 0.269230769,11.2046505 0.710769231,11.4333169 L5.49230769,13.9278587 C5.93384615,14.1565251 6.46153846,13.8135256 6.46153846,13.2938293 L6.46153846,8.43986663 C6.46153846,7.93056434 6.19230769,7.47323166 5.75076923,7.24456533 Z M12.5892308,3.6170857 C12.8153846,3.50275253 12.9230769,3.30526797 12.9015385,3.11817733 C12.9230769,2.92069276 12.8153846,2.73360212 12.5892308,2.61926896 L7.72153846,0.166302791 C7.50615385,0.0519696221 7.24769231,0 6.98923077,0 C6.73076923,0 6.47230769,0.0519696221 6.25692308,0.166302791 L1.38923077,2.60887503 C1.16307692,2.7232082 1.06615385,2.92069276 1.07692308,3.1077834 C1.06615385,3.30526797 1.16307692,3.50275253 1.38923077,3.6170857 L6.25692308,6.05965794 C6.47230769,6.17399111 6.73076923,6.22596073 6.98923077,6.22596073 C7.24769231,6.22596073 7.50615385,6.17399111 7.72153846,6.05965794 L12.5892308,3.6170857 Z" id="形状"></path>
                </g>
            </g>
            <g id="kubelet" transform="translate(16, 100)">
                <rect id="矩形" fill="#1F2937" x="0" y="0" width="268" height="46" rx="8"></rect>
                <text font-family="RobotoMonoForPowerline-Medium, Roboto Mono Medium for Powerline" font-size="12" font-weight="400" fill="#FFFFFF">
                    <tspan x="46" y="27">kubelet</tspan>
                </text>
                <g id="cube" transform="translate(16, 16)" fill="#FFFFFF" fill-rule="nonzero">
                    <path d="M13.0307692,4.75002346 L8.24923077,7.25495925 C7.80769231,7.48362559 7.53846154,7.94095826 7.53846154,8.45026056 L7.53846154,13.2938293 C7.53846154,13.8135256 8.06615385,14.1565251 8.50769231,13.9174648 L13.2892308,11.412529 C13.72,11.1838627 14,10.72653 14,10.2172277 L14,5.38405285 C14,4.85396271 13.4723077,4.52135713 13.0307692,4.75002346 Z M5.75076923,7.24456533 L0.969230769,4.75002346 C0.527692308,4.52135713 0,4.85396271 0,5.37365893 L0,10.2380156 C0,10.7473179 0.269230769,11.2046505 0.710769231,11.4333169 L5.49230769,13.9278587 C5.93384615,14.1565251 6.46153846,13.8135256 6.46153846,13.2938293 L6.46153846,8.43986663 C6.46153846,7.93056434 6.19230769,7.47323166 5.75076923,7.24456533 Z M12.5892308,3.6170857 C12.8153846,3.50275253 12.9230769,3.30526797 12.9015385,3.11817733 C12.9230769,2.92069276 12.8153846,2.73360212 12.5892308,2.61926896 L7.72153846,0.166302791 C7.50615385,0.0519696221 7.24769231,0 6.98923077,0 C6.73076923,0 6.47230769,0.0519696221 6.25692308,0.166302791 L1.38923077,2.60887503 C1.16307692,2.7232082 1.06615385,2.92069276 1.07692308,3.1077834 C1.06615385,3.30526797 1.16307692,3.50275253 1.38923077,3.6170857 L6.25692308,6.05965794 C6.47230769,6.17399111 6.73076923,6.22596073 6.98923077,6.22596073 C7.24769231,6.22596073 7.50615385,6.17399111 7.72153846,6.05965794 L12.5892308,3.6170857 Z" id="形状"></path>
                </g>
            </g>
            <rect id="mask" fill-opacity="0.2" fill="#FFFFFF" x="0" y="0" width="300" height="162" rx="8"></rect>
            <text id="node2:-10.1.1.22" font-family="RobotoMonoForPowerline-Medium, Roboto Mono Medium for Powerline" font-size="12" font-weight="400" fill="#FFFFFF">
                <tspan x="42" y="27">node2: 10.1.1.22</tspan>
            </text>
            <text id="8C/32G/200G" font-family="RobotoMonoForPowerline-Medium, Roboto Mono Medium for Powerline" font-size="12" font-weight="400" fill="#FFFFFF">
                <tspan x="204.787109" y="27">8C/32G/200G</tspan>
            </text>
            <g transform="translate(16, 16)" fill="#FFFFFF" fill-rule="nonzero" id="形状">
                <path d="M0,0 L0,3 L14,3 L14,0 L0,0 Z M2.5375,2.18918919 L0.9625,2.18918919 L0.9625,0.891891892 L2.45,0.891891892 L2.45,2.18918919 L2.5375,2.18918919 Z M4.725,2.18918919 L3.2375,2.18918919 L3.2375,0.891891892 L4.725,0.891891892 L4.725,2.18918919 Z M7,2.18918919 L5.5125,2.18918919 L5.5125,0.891891892 L7,0.891891892 L7,2.18918919 L7,2.18918919 Z"></path>
                <path d="M0,5 L0,8 L14,8 L14,5 L0,5 Z M2.5375,7.18918919 L0.9625,7.18918919 L0.9625,5.89189189 L2.45,5.89189189 L2.45,7.18918919 L2.5375,7.18918919 Z M4.725,7.18918919 L3.2375,7.18918919 L3.2375,5.89189189 L4.725,5.89189189 L4.725,7.18918919 Z M7,7.18918919 L5.5125,7.18918919 L5.5125,5.89189189 L7,5.89189189 L7,7.18918919 L7,7.18918919 Z"></path>
                <path d="M0,11 L0,14 L14,14 L14,11 L0,11 Z M2.5375,13.1081081 L0.9625,13.1081081 L0.9625,11.8108108 L2.45,11.8108108 L2.45,13.1081081 L2.5375,13.1081081 Z M4.725,13.1081081 L3.2375,13.1081081 L3.2375,11.8108108 L4.725,11.8108108 L4.725,13.1081081 Z M7,13.1081081 L5.5125,13.1081081 L5.5125,11.8108108 L7,11.8108108 L7,13.1081081 L7,13.1081081 Z"></path>
            </g>
        </g>
        <g id="node" transform="translate(741, 610)">
            <rect id="panel" fill="#4B5563" x="0" y="0" width="300" height="162" rx="8"></rect>
            <g id="kube-proxy" transform="translate(16, 46)">
                <rect id="矩形" fill="#1F2937" x="0" y="0" width="268" height="46" rx="8"></rect>
                <text font-family="RobotoMonoForPowerline-Medium, Roboto Mono Medium for Powerline" font-size="12" font-weight="400" fill="#FFFFFF">
                    <tspan x="46" y="27">kube-proxy</tspan>
                </text>
                <g id="cube" transform="translate(16, 16)" fill="#FFFFFF" fill-rule="nonzero">
                    <path d="M13.0307692,4.75002346 L8.24923077,7.25495925 C7.80769231,7.48362559 7.53846154,7.94095826 7.53846154,8.45026056 L7.53846154,13.2938293 C7.53846154,13.8135256 8.06615385,14.1565251 8.50769231,13.9174648 L13.2892308,11.412529 C13.72,11.1838627 14,10.72653 14,10.2172277 L14,5.38405285 C14,4.85396271 13.4723077,4.52135713 13.0307692,4.75002346 Z M5.75076923,7.24456533 L0.969230769,4.75002346 C0.527692308,4.52135713 0,4.85396271 0,5.37365893 L0,10.2380156 C0,10.7473179 0.269230769,11.2046505 0.710769231,11.4333169 L5.49230769,13.9278587 C5.93384615,14.1565251 6.46153846,13.8135256 6.46153846,13.2938293 L6.46153846,8.43986663 C6.46153846,7.93056434 6.19230769,7.47323166 5.75076923,7.24456533 Z M12.5892308,3.6170857 C12.8153846,3.50275253 12.9230769,3.30526797 12.9015385,3.11817733 C12.9230769,2.92069276 12.8153846,2.73360212 12.5892308,2.61926896 L7.72153846,0.166302791 C7.50615385,0.0519696221 7.24769231,0 6.98923077,0 C6.73076923,0 6.47230769,0.0519696221 6.25692308,0.166302791 L1.38923077,2.60887503 C1.16307692,2.7232082 1.06615385,2.92069276 1.07692308,3.1077834 C1.06615385,3.30526797 1.16307692,3.50275253 1.38923077,3.6170857 L6.25692308,6.05965794 C6.47230769,6.17399111 6.73076923,6.22596073 6.98923077,6.22596073 C7.24769231,6.22596073 7.50615385,6.17399111 7.72153846,6.05965794 L12.5892308,3.6170857 Z" id="形状"></path>
                </g>
            </g>
            <g id="kubelet" transform="translate(16, 100)">
                <rect id="矩形" fill="#1F2937" x="0" y="0" width="268" height="46" rx="8"></rect>
                <text font-family="RobotoMonoForPowerline-Medium, Roboto Mono Medium for Powerline" font-size="12" font-weight="400" fill="#FFFFFF">
                    <tspan x="46" y="27">kubelet</tspan>
                </text>
                <g id="cube" transform="translate(16, 16)" fill="#FFFFFF" fill-rule="nonzero">
                    <path d="M13.0307692,4.75002346 L8.24923077,7.25495925 C7.80769231,7.48362559 7.53846154,7.94095826 7.53846154,8.45026056 L7.53846154,13.2938293 C7.53846154,13.8135256 8.06615385,14.1565251 8.50769231,13.9174648 L13.2892308,11.412529 C13.72,11.1838627 14,10.72653 14,10.2172277 L14,5.38405285 C14,4.85396271 13.4723077,4.52135713 13.0307692,4.75002346 Z M5.75076923,7.24456533 L0.969230769,4.75002346 C0.527692308,4.52135713 0,4.85396271 0,5.37365893 L0,10.2380156 C0,10.7473179 0.269230769,11.2046505 0.710769231,11.4333169 L5.49230769,13.9278587 C5.93384615,14.1565251 6.46153846,13.8135256 6.46153846,13.2938293 L6.46153846,8.43986663 C6.46153846,7.93056434 6.19230769,7.47323166 5.75076923,7.24456533 Z M12.5892308,3.6170857 C12.8153846,3.50275253 12.9230769,3.30526797 12.9015385,3.11817733 C12.9230769,2.92069276 12.8153846,2.73360212 12.5892308,2.61926896 L7.72153846,0.166302791 C7.50615385,0.0519696221 7.24769231,0 6.98923077,0 C6.73076923,0 6.47230769,0.0519696221 6.25692308,0.166302791 L1.38923077,2.60887503 C1.16307692,2.7232082 1.06615385,2.92069276 1.07692308,3.1077834 C1.06615385,3.30526797 1.16307692,3.50275253 1.38923077,3.6170857 L6.25692308,6.05965794 C6.47230769,6.17399111 6.73076923,6.22596073 6.98923077,6.22596073 C7.24769231,6.22596073 7.50615385,6.17399111 7.72153846,6.05965794 L12.5892308,3.6170857 Z" id="形状"></path>
                </g>
            </g>
            <text id="node1:-10.1.1.21" font-family="RobotoMonoForPowerline-Medium, Roboto Mono Medium for Powerline" font-size="12" font-weight="400" fill="#FFFFFF">
                <tspan x="42" y="27">node1: 10.1.1.21</tspan>
            </text>
            <text id="8C/32G/200G" font-family="RobotoMonoForPowerline-Medium, Roboto Mono Medium for Powerline" font-size="12" font-weight="400" fill="#FFFFFF">
                <tspan x="204.787109" y="27">8C/32G/200G</tspan>
            </text>
            <g transform="translate(16, 16)" fill="#FFFFFF" fill-rule="nonzero" id="形状">
                <path d="M0,0 L0,3 L14,3 L14,0 L0,0 Z M2.5375,2.18918919 L0.9625,2.18918919 L0.9625,0.891891892 L2.45,0.891891892 L2.45,2.18918919 L2.5375,2.18918919 Z M4.725,2.18918919 L3.2375,2.18918919 L3.2375,0.891891892 L4.725,0.891891892 L4.725,2.18918919 Z M7,2.18918919 L5.5125,2.18918919 L5.5125,0.891891892 L7,0.891891892 L7,2.18918919 L7,2.18918919 Z"></path>
                <path d="M0,5 L0,8 L14,8 L14,5 L0,5 Z M2.5375,7.18918919 L0.9625,7.18918919 L0.9625,5.89189189 L2.45,5.89189189 L2.45,7.18918919 L2.5375,7.18918919 Z M4.725,7.18918919 L3.2375,7.18918919 L3.2375,5.89189189 L4.725,5.89189189 L4.725,7.18918919 Z M7,7.18918919 L5.5125,7.18918919 L5.5125,5.89189189 L7,5.89189189 L7,7.18918919 L7,7.18918919 Z"></path>
                <path d="M0,11 L0,14 L14,14 L14,11 L0,11 Z M2.5375,13.1081081 L0.9625,13.1081081 L0.9625,11.8108108 L2.45,11.8108108 L2.45,13.1081081 L2.5375,13.1081081 Z M4.725,13.1081081 L3.2375,13.1081081 L3.2375,11.8108108 L4.725,11.8108108 L4.725,13.1081081 Z M7,13.1081081 L5.5125,13.1081081 L5.5125,11.8108108 L7,11.8108108 L7,13.1081081 L7,13.1081081 Z"></path>
            </g>
        </g>
        <path d="M502,586.540541 C502,620.821496 502,655.488162 502,690.540541 L741,690.540541" id="connect" stroke="#9CA3AF"></path>
    </g>
</svg>